<svg xmlns="http://www.w3.org/2000/svg" x="0px" y="0px" width="29" height="29" viewBox="0 -2 100 100">
<path fill="#f15b6c" d="M50,15c-19.33,0-35,15.67-35,35s15.67,35,35,35s35-15.67,35-35S69.33,15,50,15z"></path><path fill="#1f212b" d="M50,14c-19.851,0-36,16.149-36,36s16.149,36,36,36s36-16.149,36-36S69.851,14,50,14z M50,84 c-18.748,0-34-15.252-34-34s15.252-34,34-34s34,15.252,34,34S68.748,84,50,84z"></path><path fill="#1f212b" d="M71.853,28.013c-0.196-0.194-0.512-0.194-0.707,0.002s-0.194,0.513,0.002,0.707 C76.856,34.396,80,41.952,80,50c0,16.542-13.458,30-30,30S20,66.542,20,50s13.458-30,30-30c3.55,0,7.025,0.614,10.328,1.825 c0.261,0.094,0.547-0.037,0.642-0.298c0.095-0.259-0.038-0.546-0.297-0.642C57.259,19.635,53.668,19,50,19 c-17.093,0-31,13.906-31,31s13.907,31,31,31s31-13.906,31-31C81,41.684,77.751,33.875,71.853,28.013z"></path><path fill="#1f212b" d="M63.277,23.091c0.669,0.332,1.331,0.69,1.969,1.066c0.237,0.141,0.544,0.062,0.685-0.177 C65.978,23.9,66,23.813,66,23.727c0-0.171-0.088-0.338-0.246-0.431c-0.658-0.388-1.342-0.759-2.031-1.102 c-0.248-0.122-0.548-0.021-0.671,0.226C62.931,22.665,63.029,22.967,63.277,23.091z M68.196,26.146 c0.22,0.167,0.533,0.126,0.701-0.094c0.07-0.09,0.103-0.197,0.103-0.303c0-0.15-0.067-0.299-0.196-0.397 c-0.333-0.255-0.673-0.503-1.017-0.744c-0.226-0.159-0.537-0.104-0.696,0.122c-0.158,0.225-0.104,0.537,0.122,0.696 C67.545,25.659,67.873,25.899,68.196,26.146z"></path><path fill="#fff" d="M52.5,28.5c-14,0-19,11-19,17c0,5.733,3.081,8.384,4.827,9.427c0.573,0.342,1.31,0.023,1.472-0.625 l0.577-2.31c0.075-0.299,0.004-0.61-0.181-0.856c-0.56-0.742-1.696-2.621-1.696-5.636c0-5,4-13,13-13c16,0,12,24,3,24 c-2.929,0-4.279-1.752-4.863-3.789c1.038-4.046,1.863-7.728,1.863-9.211c0-4-3-4-3-4c-2,0-4,2-4,6c0,0.884,0.098,2.16,0.348,3.609 L40.5,66.5l1,7l4-6c0,0,1.36-4.536,2.786-9.718C49.944,59.95,52.269,61.5,55.5,61.5c7,0,13-8,13-18C68.5,39.5,65.5,28.5,52.5,28.5z"></path><g><path fill="#1f212b" d="M41.5,74c-0.037,0-0.074-0.004-0.11-0.013c-0.202-0.046-0.355-0.211-0.385-0.417l-1-7 c-0.009-0.063-0.006-0.129,0.01-0.191l4.322-17.289C44.044,47.346,44,46.096,44,45.5c0-4.466,2.333-6.5,4.5-6.5 c0.035,0,3.5,0.052,3.5,4.5c0,1.32-0.62,4.416-1.844,9.201C50.832,54.921,52.254,56,54.5,56c4.349,0,7.379-6.249,7.379-11.857 c0-3.047-0.849-5.786-2.39-7.714C57.67,34.153,54.982,33,51.5,33C42.973,33,39,40.459,39,45.5c0,2.906,1.116,4.699,1.596,5.336 c0.279,0.371,0.376,0.836,0.267,1.277l-0.577,2.31c-0.117,0.469-0.44,0.844-0.886,1.029c-0.439,0.182-0.924,0.146-1.329-0.097 C36.177,54.226,33,51.442,33,45.5C33,39.79,37.767,28,52.5,28C65.969,28,69,39.479,69,43.5C69,53.701,62.944,62,55.5,62 c-2.752,0-5.099-1.062-6.988-3.162c-1.314,4.739-2.52,8.763-2.533,8.806c-0.014,0.048-0.035,0.093-0.062,0.134l-4,6 C41.822,73.918,41.665,74,41.5,74z M41.009,66.526l0.801,5.607l3.232-4.849c0.18-0.6,1.45-4.869,2.761-9.637 c0.051-0.183,0.2-0.321,0.387-0.358c0.191-0.035,0.378,0.037,0.493,0.188C50.47,59.814,52.764,61,55.5,61 C62.275,61,68,52.986,68,43.5C68,39.738,65.152,29,52.5,29C38.522,29,34,40.116,34,45.5c0,5.448,2.872,7.976,4.583,8.997 c0.181,0.11,0.35,0.065,0.434,0.031c0.149-0.062,0.259-0.189,0.298-0.348l0.577-2.31c0.037-0.146,0.002-0.305-0.095-0.434 C39.126,50.548,38,48.593,38,45.5C38,40.056,42.291,32,51.5,32c3.748,0,6.78,1.315,8.771,3.805 c1.682,2.104,2.608,5.064,2.608,8.338C62.879,50.352,59.512,57,54.5,57c-2.718,0-4.565-1.436-5.343-4.151 c-0.024-0.086-0.026-0.176-0.004-0.262C50.68,46.633,51,44.359,51,43.5c0-3.46-2.397-3.5-2.5-3.5c-1.686,0-3.5,1.721-3.5,5.5 c0,0.98,0.124,2.265,0.341,3.524c0.012,0.068,0.009,0.139-0.008,0.206L41.009,66.526z"></path></g>
</svg>